<?xml version="1.0" encoding="UTF-8"?><svg id="Calque_1" xmlns="http://www.w3.org/2000/svg" viewBox="0 0 1440 1024"><defs><style>.cls-1{fill:none;stroke:#ffda0a;stroke-miterlimit:10;stroke-width:13.96px;}.cls-2{fill:#003561;}.cls-3{fill:#fff;}</style></defs><rect class="cls-2" width="1440" height="1024"/><path class="cls-3" d="m95.86,782.82c9.52-.15,19.5-1.3,29.92-3.46,10.42-2.15,18.98-4.65,25.68-7.48,1.64,1.04,2.9,2.87,3.8,5.47.9,2.61,1.34,5.4,1.34,8.37,0,3.28-.56,6.03-1.68,8.26-1.11,2.23-2.72,3.35-4.8,3.35h-65.88c-4.47,0-8.12-1.23-10.94-3.68-2.83-2.46-4.24-5.84-4.24-10.16l-.22-111.21c0-10.87-1.27-19.95-3.79-27.25,1.49-1.49,3.57-2.83,6.25-4.02s5.73-1.79,9.15-1.79c4.47,0,8.11,1.23,10.94,3.68,2.83,2.46,4.24,5.77,4.24,9.94l.23,129.96Z"/><path class="cls-3" d="m263.34,771.66c0,1.79-.52,4.02-1.56,6.7-2.83,7-7.93,12.43-15.3,16.3s-16.19,5.81-26.46,5.81c-17.12,0-30.63-5.28-40.53-15.86-9.9-10.57-14.85-25.46-14.85-44.66s4.83-33.72,14.52-44.44c9.67-10.72,23.52-16.08,41.53-16.08,12.95,0,23.56,2.9,31.82,8.71s12.39,14.07,12.39,24.79-4.43,19.24-13.29,25.12c-8.86,5.88-20.73,8.82-35.61,8.82-8.49,0-16.01-.37-22.56-1.12,1.04,13.55,4.47,23.26,10.27,29.14,5.81,5.88,13.7,8.82,23.67,8.82,7.89,0,14.66-1.64,20.32-4.92,5.66-3.27,9.68-7.59,12.06-12.95,2.38,1.04,3.58,2.98,3.58,5.81Zm-63.31-70.12c-4.69,8.34-7.03,19.95-7.03,34.84,4.17.3,7.44.45,9.83.45,9.82,0,17.86-1.94,24.12-5.81s9.38-11.31,9.38-22.33c0-13.1-5.58-19.65-16.75-19.65-8.34,0-14.85,4.17-19.54,12.51Z"/><path class="cls-3" d="m392.41,785.06c0,4.17-1.79,7.63-5.36,10.38-3.58,2.75-8.26,4.13-14.07,4.13-7.15,0-12.65-2.42-16.52-7.26-3.88-4.83-6.03-12.69-6.48-23.56-4.32,9.38-10.27,16.86-17.86,22.44-7.59,5.58-16.38,8.38-26.35,8.38-8.63,0-15.6-2.31-20.88-6.92-5.29-4.61-7.93-11.02-7.93-19.2,0-9.53,3.61-17.34,10.83-23.45,7.22-6.1,16.41-10.72,27.58-13.85,9.97-2.83,20.99-4.24,33.05-4.24v-5.8c0-12.65-1.67-22.03-5.02-28.14-3.35-6.1-8.9-9.15-16.63-9.15-5.22,0-9.46,1.38-12.73,4.13-3.28,2.76-4.91,7.11-4.91,13.07,0,3.43.63,6.62,1.89,9.6,1.26,2.98,3.38,5.22,6.37,6.7-1.49,1.64-3.53,2.87-6.14,3.68-2.61.82-5.4,1.23-8.38,1.23-6.25,0-11.28-1.93-15.07-5.81-3.8-3.87-5.7-8.71-5.7-14.52,0-8.78,4.13-15.55,12.39-20.32,8.26-4.77,19.54-7.15,33.83-7.15,16.37,0,28.36,3.83,35.95,11.5,7.59,7.67,11.39,19.99,11.39,36.96v39.97c0,7.89,2.53,11.84,7.59,11.84,1.04,0,2.16-.26,3.35-.78,1.19-.52,2.16-1.38,2.9-2.57,1.94,2.83,2.9,5.73,2.9,8.71Zm-60.29-8.49c4.92-3.72,9.01-8.75,12.29-15.07,3.27-6.32,4.91-13.21,4.91-20.65-11.91-.3-21.36,1.26-28.36,4.69-4.62,2.23-8.26,5.21-10.94,8.93-2.68,3.72-4.02,7.96-4.02,12.73,0,4.32.96,7.9,2.9,10.72,1.93,2.83,4.91,4.24,8.93,4.24,4.61,0,9.38-1.86,14.29-5.58Z"/><path class="cls-3" d="m481.17,686.13c5.13,4.47,7.71,10.57,7.71,18.31,0,5.36-1.64,9.86-4.92,13.51-3.28,3.65-7.3,5.55-12.06,5.7-2.68,0-5.06-.37-7.15-1.12s-3.72-1.71-4.91-2.9c1.64-2.83,2.71-5.32,3.24-7.48.52-2.16.78-4.73.78-7.71,0-8.19-3.43-12.29-10.27-12.29-5.81,0-10.46,4.39-13.96,13.18-3.5,8.79-5.25,21.81-5.25,39.08s.22,27.8.67,33.38,1.71,10.91,3.8,15.97c-1.49,1.49-3.54,2.83-6.14,4.02-2.61,1.19-5.62,1.79-9.05,1.79-4.32,0-7.96-1.34-10.94-4.02-2.98-2.68-4.47-6.4-4.47-11.17v-73.25c0-4.17-.49-7.15-1.45-8.93s-2.49-2.68-4.58-2.68c-2.83,0-4.77.97-5.81,2.9-1.79-2.98-2.68-5.95-2.68-8.93,0-4.17,1.45-7.51,4.35-10.05,2.9-2.53,6.96-3.79,12.17-3.79,6.25,0,11.24,2.05,14.96,6.14,3.72,4.09,5.81,10.16,6.26,18.2,5.21-16.37,15.03-24.56,29.48-24.56,8.33,0,15.07,2.23,20.21,6.7Z"/><path class="cls-3" d="m607.9,794.43c-4.62,4.02-9.75,6.03-15.41,6.03-4.47,0-8.11-1.27-10.94-3.79-2.83-2.53-4.24-5.96-4.24-10.27v-57.62c-.15-12.2-1.53-21.21-4.13-27.02s-7.33-8.71-14.18-8.71c-7.45,0-13.62,4.35-18.53,13.06-4.92,8.71-7.37,21.48-7.37,38.3s.22,28.29.67,33.94c.45,5.66,1.71,11.09,3.8,16.3-1.64,1.49-3.76,2.83-6.37,4.02-2.61,1.19-5.47,1.79-8.6,1.79-4.62,0-8.37-1.38-11.28-4.13s-4.35-6.44-4.35-11.05v-74.14c-.15-4.17-.67-7.15-1.56-8.93-.9-1.79-2.39-2.68-4.47-2.68-2.83,0-4.77.97-5.81,2.9-1.79-2.98-2.68-5.95-2.68-8.93,0-4.17,1.45-7.51,4.35-10.05,2.9-2.53,6.96-3.79,12.17-3.79,6.7,0,11.87,2.2,15.52,6.59,3.65,4.39,5.55,11.05,5.7,19.99,3.13-8.63,7.81-15.26,14.07-19.88,6.25-4.61,14.07-6.92,23.45-6.92,12.21,0,21.25,3.79,27.13,11.39,5.88,7.6,8.82,18.91,8.82,33.95v42.2c.45,12.36,1.86,21.52,4.24,27.47Z"/><path class="cls-3" d="m764.55,663.02c12.13,8.56,20.84,19.25,26.13,32.04,5.28,12.81,7.93,25.76,7.93,38.86,0,12.36-1.71,22.67-5.14,30.93-3.43,8.26-7.96,14.37-13.62,18.31-5.66,3.94-11.99,5.92-18.98,5.92-6.11,0-11.65-1.89-16.64-5.69s-8.01-8.52-9.04-14.18c-6.56,11.31-15.34,16.97-26.35,16.97-13.85,0-23-4.24-27.47-12.73s-6.7-18.54-6.7-30.15c0-16.97,3.61-30.22,10.83-39.75,7.22-9.52,17.76-14.29,31.6-14.29s24.57,3.95,30.37,11.84c5.81,7.9,8.71,17.5,8.71,28.81l-.22,25.91c-.15,6.11.63,11.13,2.34,15.07,1.71,3.95,4.5,5.92,8.37,5.92,5.21,0,9.49-3.68,12.84-11.05,3.35-7.37,5.02-18.27,5.02-32.72,0-11.16-2.16-22.11-6.47-32.83-4.32-10.72-11.39-19.69-21.22-26.91-9.82-7.22-22.63-10.83-38.41-10.83s-28.7,3.54-39.19,10.61c-10.49,7.07-18.24,16.38-23.23,27.91-4.99,11.54-7.48,24.16-7.48,37.85s2.57,26.5,7.7,37.07c5.14,10.57,11.91,18.65,20.32,24.23,8.41,5.58,17.46,8.38,27.13,8.38,2.53,0,4.39-.08,5.58-.23,1.19,1.94,1.79,3.65,1.79,5.14,0,2.38-1.34,4.28-4.02,5.69-2.68,1.41-6.4,2.12-11.16,2.12-9.83,0-20.32-2.94-31.49-8.82-11.16-5.88-20.65-14.96-28.47-27.25-7.81-12.28-11.72-27.43-11.72-45.44,0-15.48,3.35-30.04,10.05-43.66,6.7-13.63,17.08-24.68,31.15-33.17,14.07-8.48,31.6-12.73,52.59-12.73,18.9,0,34.42,4.28,46.56,12.84Zm-43.55,107.86c3.94-4.09,7-9.71,9.16-16.86,2.15-7.15,3.23-15.26,3.23-24.34,0-9.97-1.49-17.64-4.47-23-2.98-5.36-8.19-8.04-15.63-8.04-8.93,0-15.78,3.72-20.54,11.16-4.77,7.45-7.15,18.54-7.15,33.27,0,9.38,1.41,17.38,4.24,24.01,2.83,6.62,8.71,9.94,17.64,9.94,5.06,0,9.56-2.04,13.51-6.14Z"/><path class="cls-3" d="m945.32,794.43c-1.49,1.49-3.58,2.87-6.25,4.13-2.68,1.26-5.73,1.9-9.16,1.9-4.47,0-8.15-1.27-11.05-3.79-2.9-2.53-4.35-5.96-4.35-10.27v-63.2h-62.08v43.77c0,11.76,1.26,20.92,3.79,27.47-1.49,1.49-3.57,2.87-6.25,4.13s-5.73,1.9-9.15,1.9c-4.47,0-8.12-1.27-10.94-3.79-2.83-2.53-4.24-5.96-4.24-10.27l-.22-114.11c0-10.87-1.27-19.95-3.79-27.25,1.49-1.49,3.57-2.83,6.25-4.02s5.73-1.79,9.15-1.79c4.47,0,8.15,1.23,11.05,3.68,2.9,2.46,4.36,5.77,4.36,9.94v55.83h62.08v-36.4c0-10.87-1.27-19.95-3.8-27.25,1.49-1.49,3.58-2.83,6.26-4.02,2.68-1.19,5.73-1.79,9.15-1.79,4.47,0,8.15,1.23,11.05,3.68,2.9,2.46,4.35,5.77,4.35,9.94v114.11c0,11.76,1.26,20.92,3.8,27.47Z"/><path class="cls-3" d="m978.92,784.5c-9.46-10.64-14.18-25.49-14.18-44.55s4.72-33.91,14.18-44.55c9.45-10.64,22.74-15.97,39.86-15.97s30.19,5.32,39.64,15.97c9.45,10.64,14.18,25.5,14.18,44.55s-4.73,33.91-14.18,44.55c-9.45,10.64-22.67,15.97-39.64,15.97s-30.41-5.32-39.86-15.97Zm65.1-44.55c0-33.94-8.41-50.92-25.24-50.92s-25.68,16.97-25.68,50.92,8.56,50.92,25.68,50.92,25.24-16.97,25.24-50.92Z"/><path class="cls-3" d="m1260.18,794.43c-4.62,4.02-9.68,6.03-15.18,6.03-4.47,0-8.12-1.27-10.94-3.79-2.83-2.53-4.24-5.96-4.24-10.27l-.22-57.62c0-12.06-1.04-21.18-3.13-27.36-2.09-6.17-6.33-9.27-12.73-9.27-4.17,0-8.11,1.9-11.84,5.7-3.72,3.79-6.77,9.53-9.15,17.19-2.38,7.67-3.65,17.01-3.79,28.03v23.89c0,11.32,1.34,20.47,4.02,27.47-4.62,4.02-9.6,6.03-14.96,6.03-4.17,0-7.67-1.27-10.49-3.79-2.83-2.53-4.24-5.96-4.24-10.27v-57.62c0-12.5-1.23-21.74-3.68-27.69-2.46-5.95-6.89-8.93-13.28-8.93-6.85,0-12.51,4.47-16.97,13.4-4.47,8.93-6.7,22.11-6.7,39.52s.23,27.8.67,33.39c.45,5.58,1.71,10.98,3.8,16.19-2.09,1.64-4.24,3.02-6.48,4.13-2.23,1.12-5.13,1.68-8.71,1.68-4.47,0-8.11-1.38-10.94-4.13-2.83-2.75-4.24-6.44-4.24-11.05l-.22-73.92c0-7.89-2.31-11.84-6.92-11.84-1.19,0-2.39.3-3.57.9-1.19.6-2.09,1.49-2.68,2.68-1.79-2.53-2.68-5.43-2.68-8.71,0-4.47,1.53-8.04,4.58-10.72,3.05-2.68,7.18-4.02,12.39-4.02,6.7,0,11.95,2.27,15.75,6.81,3.79,4.54,5.84,11.35,6.14,20.43,2.83-8.63,7.22-15.37,13.18-20.21,5.96-4.83,13.4-7.26,22.33-7.26s15.97,2.2,21.1,6.59c5.14,4.39,8.75,11.05,10.83,19.99,2.83-8.34,7.26-14.85,13.29-19.54s13.36-7.03,21.99-7.03c22.63,0,33.94,15.11,33.94,45.33v42.2c0,11.32,1.34,20.47,4.02,27.47Z"/><path class="cls-3" d="m1373.4,771.66c0,1.79-.52,4.02-1.56,6.7-2.83,7-7.93,12.43-15.3,16.3s-16.19,5.81-26.46,5.81c-17.12,0-30.63-5.28-40.53-15.86-9.9-10.57-14.85-25.46-14.85-44.66s4.83-33.72,14.52-44.44c9.67-10.72,23.52-16.08,41.53-16.08,12.95,0,23.56,2.9,31.82,8.71s12.39,14.07,12.39,24.79-4.43,19.24-13.29,25.12c-8.86,5.88-20.73,8.82-35.61,8.82-8.49,0-16.01-.37-22.56-1.12,1.04,13.55,4.47,23.26,10.27,29.14,5.81,5.88,13.7,8.82,23.67,8.82,7.89,0,14.66-1.64,20.32-4.92,5.66-3.27,9.68-7.59,12.06-12.95,2.38,1.04,3.58,2.98,3.58,5.81Zm-63.31-70.12c-4.69,8.34-7.03,19.95-7.03,34.84,4.17.3,7.44.45,9.83.45,9.82,0,17.86-1.94,24.12-5.81,6.25-3.87,9.38-11.31,9.38-22.33,0-13.1-5.58-19.65-16.75-19.65-8.34,0-14.85,4.17-19.54,12.51Z"/><circle class="cls-1" cx="724.05" cy="327.24" r="29.08"/><path class="cls-1" d="m608.47,453.77c20.12-14.1,44.61-22.37,71.04-22.37h89.08c26.43,0,50.93,8.27,71.04,22.37"/><path class="cls-1" d="m839.63,391.2c21.19,2.41,37.65,20.4,37.65,42.24v70.54c0,6.53-5.29,11.82-11.82,11.82h-25.83"/><path class="cls-1" d="m608.52,391.2c-21.21,2.39-37.7,20.39-37.7,42.24v70.54c0,6.53,5.29,11.82,11.82,11.82h25.83"/><path class="cls-1" d="m669.18,254.94v-24.39c0-15.34,12.44-27.78,27.78-27.78h54.17c15.34,0,27.78,12.44,27.78,27.78v24.39"/><path class="cls-1" d="m712.28,245.6h23.54c57.29,0,103.81,46.52,103.81,103.81v167.21c0,15.76-12.8,28.56-28.56,28.56h-174.03c-15.76,0-28.56-12.8-28.56-28.56v-167.21c0-57.29,46.52-103.81,103.81-103.81Z"/></svg>