<?xml version="1.0" encoding="UTF-8"?><svg id="Calque_2" xmlns="http://www.w3.org/2000/svg" viewBox="0 0 400 400"><defs><style>.cls-1{fill:none;stroke:#ffda0a;stroke-miterlimit:10;stroke-width:13.96px;}.cls-2{fill:#003561;}</style></defs><g id="Calque_1-2"><rect class="cls-2" width="400" height="400"/><circle class="cls-1" cx="200" cy="153.27" r="29.08"/><path class="cls-1" d="m84.42,279.79c20.12-14.1,44.61-22.37,71.04-22.37h89.08c26.43,0,50.93,8.27,71.04,22.37"/><path class="cls-1" d="m315.58,217.23c21.19,2.41,37.65,20.4,37.65,42.24v70.54c0,6.53-5.29,11.82-11.82,11.82h-25.83"/><path class="cls-1" d="m84.47,217.22c-21.21,2.39-37.7,20.39-37.7,42.24v70.54c0,6.53,5.29,11.82,11.82,11.82h25.83"/><path class="cls-1" d="m145.13,80.96v-24.39c0-15.34,12.44-27.78,27.78-27.78h54.17c15.34,0,27.78,12.44,27.78,27.78v24.39"/><path class="cls-1" d="m188.23,71.62h23.54c57.29,0,103.81,46.52,103.81,103.81v167.21c0,15.76-12.8,28.56-28.56,28.56H112.98c-15.76,0-28.56-12.8-28.56-28.56v-167.21c0-57.29,46.52-103.81,103.81-103.81Z"/></g></svg>